# xmcd CD database file generated by OrangeCD 6.5
#
# Track frame offsets:
#	150
#	43863
#	72768
#	108908
#	137578
#	169036
#	204561
#
# Disc length: 2902 seconds
#
# Revision: 0
# Processed by: cddbd v1.5.2PL0 Copyright (c) Steve Scherf et al.
# Submitted via: OrangeCD 6.5
#
DISCID=5d0b5407
DTITLE=Johnny Winter - Live Bootleg Series 13 [Ltd. Edition]
DYEAR=2016
DGENRE=
TTITLE0=Mean Town Blues
TTITLE1=Mojo Boogie
TTITLE2=Last Night
TTITLE3=WAlking By Myself
TTITLE4=Mad Dog
TTITLE5=Don't Take Advantage Of Me
TTITLE6=Gimme Shelter
EXTD=
EXTT0=
EXTT1=
EXTT2=
EXTT3=
EXTT4=
EXTT5=
EXTT6=
PLAYORDER=
